<?xml version="1.0" encoding="UTF-8"?>
<!DOCTYPE svg PUBLIC "-//W3C//DTD SVG 1.0//EN" "http://www.w3.org/TR/2001/REC-SVG-20010904/DTD/svg10.dtd">
<!-- Creator: CorelDRAW 2017 -->
<svg xmlns="http://www.w3.org/2000/svg" xml:space="preserve" width="356px" height="200px" version="1.0" shape-rendering="geometricPrecision" text-rendering="geometricPrecision" image-rendering="optimizeQuality" fill-rule="evenodd" clip-rule="evenodd"
viewBox="0 0 35600 20025"
 xmlns:xlink="http://www.w3.org/1999/xlink">
 <g id="Layer_x0020_1">
  <metadata id="CorelCorpID_0Corel-Layer"/>
  <g id="_2047525613696">
   <path fill="#E6E7E8" d="M0 0l35600 0 0 20025 -35600 0 0 -20025z"/>
   <path fill="#373435" fill-opacity="0.078431" d="M19520 5172l0 0zm-19520 9709l0 -13 0 -271 0 -121 0 -20 0 -374 0 -20 10799 -10053 -278 279 -5422 5421 -278 279 63 63 5892 -5485 -81 134 -109 150 -132 164 -154 176 -170 186 -184 192 -195 197 -201 199 -205 199 -204 196 -4117 3832 7 7 3362 -3131 -152 146 -131 129 -129 131 -146 152 -161 170 -173 183 -184 194 -190 201 -196 204 -1 1 3796 -3534 95 55 112 80 127 101 140 121 150 137 158 149 162 158 165 163 165 167 162 166 156 161 149 155 139 144 125 131 110 113 92 93 104 104 118 118 129 129 140 139 148 146 153 151 158 154 159 154 160 153 157 148 153 142 146 133 139 122 85 72 3709 -3452 -86 92 -77 100 -67 107 -57 114 -47 120 -35 125 -14 78 576 -536 154 -123 177 -94 195 -59 210 -20 8350 0 210 20 196 59 176 94 155 123 127 151 98 173 62 191 25 207 -304 283 304 0 0 2832 -209 194 99 58 143 102 135 118 119 134 104 143 88 150 72 156 56 160 40 165 24 166 8 167 -8 168 -24 166 -40 164 -56 159 -72 155 -88 149 -104 141 -119 132 -796 741 118 -28 165 -55 161 -69 155 -84 149 -98 142 -113 1353 1364 53 35 55 9 51 -14 43 -32 -6267 5834 -200 0 -2818 0 -410 0 -3 0 -403 0 -409 0 -1 0 -265 0 -153 0 -253 0 -48 0 -484 0 -73 0 -155 0 -243 0 -169 0 -30 0 -15 0 -477 0 -153 0 -520 0 -283 0 -107 0 -194 0 -141 0 -1 0 -555 0 -239 0 -145 0 -16 0 -2 0 -56 0 -41 0 -223 0 -2 0 -177 0 -115 0 -225 0 -305 0 -192 0 -220 0 -149 0 -43 0 -133 0 -48 0 -11 0 -172 0 -132 0 -6 0 -103 0 -126 0 -116 0 -146 0 -112 0 -110 0 -38 0 -103 0 -182 0 -74 0 -275 0 -990 0 -211 0 -192 0 -133 0 -210 0 -158 0 -215 0 -16 0 -5 0 -114 0 -57 0 -86 0 -47 0 -12 0 -17 0 -190 0 -76 0 -34 0 -270 0 -120 0 -142 0 -266 0 -1766 0 -578 0 -20 0 -443 0 -60 0 -9 0 -1 0 -85 0 -186 0 -467 0 -314 0 -162 0 -140 0 -113 0 -95 0 -93 0 -112 0 -34 0 -106 0 -73 0 -350 0 -59 0 -704 0 -325 0 -566 0 -191 0 -54 0 -423 0 -527 0 -252 0 0 -509 0 -338 0 -47 0 -732 0 -228 0 -675 0 -41 0 -18 0 -15 0 -167 0 -34 0 -178 0 -1090 0 -64 0 -108 0 -269 0 -336 0 -66 0 -29 0 -52 0 -16 0 -16 0 -24 0 -81 0 -11zm29202 -8408l0 0z"/>
   <path fill="#FEFEFE" d="M11077 4288l5472 5471 278 278 -278 279 -5422 5421 -278 279 -279 -279 -5471 -5471 -278 -278 278 -279 5422 -5421 278 -279 278 279zm8443 884c-723,0 -1311,577 -1332,1301l0 0 0 31 0 105 0 4961 0 32 0 0c21,713 609,1300 1332,1300l3021 0 -157 735 -367 0c-210,0 -378,167 -378,377l0 451c0,210 168,388 378,388l3346 0c220,0 388,-178 388,-388l0 -451c0,-210 -168,-377 -388,-377l-357 0 -168 -735 1763 0c755,588 1846,567 2580,-73l1353 1364c136,136 336,-74 200,-200l-1354 -1363c693,-798 661,-2004 -94,-2759 -32,-32 -63,-53 -84,-74l0 -3293 0 -31 0 0c-21,-724 -608,-1301 -1332,-1301l-8350 0 0 0z"/>
   <g>
    <path fill="#B00000" d="M9579 12086c-146,-1084 154,-965 978,-719 515,153 1602,-39 2699,9l-333 414c-494,558 -334,546 -604,843 -617,-13 -1028,-180 -1496,-449 -1015,-585 -535,-113 -1244,-98zm1181 2976c-915,-751 -1974,-1886 -2866,-2762 -1159,-1138 -1209,-1884 174,-3770 1420,-1937 4065,-1701 4999,678 440,1123 -17,1442 -459,1967 158,-961 258,-1858 -297,-2557 -404,-508 -1114,-1019 -2075,-1025 -359,100 -899,962 -1343,1383 -365,347 -230,56 -407,561 31,-20 67,-51 90,-65 466,-298 445,-222 1170,-145 1349,143 2809,91 2249,1709 -38,-2070 -2645,-1577 -2687,1049 -982,-222 -842,-1234 -719,-2585l-293 948c5,299 53,613 104,863 125,613 303,1098 1079,1009 526,-61 259,-341 952,-132 392,119 524,595 2432,667 2,361 -743,927 -999,1182 -375,376 -669,755 -1104,1025zm-5015 -5079c1374,-1302 1926,-2546 3476,-2678 -1232,825 -2408,2264 -2403,3770 -496,-230 -829,-610 -1073,-1092zm7188 -2845c512,511 1710,1720 2209,2071 46,1517 -690,1993 -2136,1970 317,-563 904,-728 820,-1833 -133,-1766 -1717,-3280 -3942,-3448l842 -854c453,217 1768,1657 2207,2094zm-7599 2869l0 24c1399,1133 4499,4739 5515,5428l5397 -5359c-466,-679 -2007,-2064 -2680,-2737 -881,-881 -2023,-1879 -2767,-2797l-23 0c-352,664 -2028,2138 -2666,2776 -637,638 -2112,2313 -2776,2665z"/>
    <path fill="#B00000" fill-rule="nonzero" d="M11077 4288l5472 5471 278 278 -278 279 -5422 5421 -278 279 -279 -279 -5471 -5471 -278 -278 278 -279 5422 -5421 278 -279 278 279zm4637 5749l-4915 -4914 -4865 4865 4915 4914 4865 -4865z"/>
    <path fill="#1080C3" d="M19520 5172c-723,0 -1311,577 -1332,1301l0 0 0 31 0 105 0 4961 0 32 0 0c21,713 609,1300 1332,1300l3021 0 -157 735 -367 0c-210,0 -378,167 -378,377l0 451c0,210 168,388 378,388l3346 0c220,0 388,-178 388,-388l0 -451c0,-210 -168,-377 -388,-377l-357 0 -168 -735 1763 0c755,588 1846,567 2580,-73l1353 1364c136,136 336,-74 200,-200l-1354 -1363c693,-798 661,-2004 -94,-2759 -32,-32 -63,-53 -84,-74l0 -3293 0 -31 0 0c-21,-724 -608,-1301 -1332,-1301l-8350 0 0 0zm0 283l8350 0c577,0 1038,451 1049,1018l-10448 0c11,-567 473,-1018 1049,-1018l0 0zm-1049 1301l10448 0 0 2832c-776,-493 -1825,-399 -2507,283 -399,399 -598,923 -598,1448l-7343 0 0 -4563 0 0zm7951 524c-314,0 -577,252 -577,567 0,104 32,199 84,283l-1101 745c-95,-84 -220,-137 -357,-137 -84,0 -168,21 -241,63l-766 -556c32,-73 53,-147 53,-220 0,-315 -263,-577 -567,-577 -314,0 -577,262 -577,577 0,63 21,136 42,199l-1919 1091c-95,-63 -210,-115 -336,-115 -315,0 -577,262 -577,577 0,304 262,566 577,566 304,0 567,-262 567,-566 0,-84 -22,-168 -53,-242l1899 -1090c105,94 230,147 377,147 126,0 252,-53 346,-126l714 513c-63,95 -105,210 -105,336 0,304 262,566 566,566 315,0 577,-262 577,-566 0,-84 -21,-157 -52,-220l1132 -766c84,52 189,84 294,84 304,0 566,-252 566,-566 1,-315 -261,-567 -566,-567l0 0zm0 273c158,0 284,136 284,294 0,157 -126,283 -284,283 -167,0 -293,-126 -293,-283 0,-158 126,-294 293,-294l0 0zm-3472 178c158,0 284,126 284,294 0,157 -126,283 -284,283 -167,0 -293,-126 -293,-283 0,-168 126,-294 293,-294l0 0zm1521 1290c168,0 294,127 294,294 0,157 -126,284 -294,284 -157,0 -283,-127 -283,-284 0,-168 126,-294 283,-294l0 0zm-4311 462c158,0 284,126 284,294 0,157 -126,283 -284,283 -167,0 -293,-126 -293,-283 0,-168 126,-294 293,-294l0 0zm7689 73c441,0 892,168 1238,504 681,692 681,1793 0,2475 -693,693 -1794,693 -2476,0 -692,-681 -692,-1783 0,-2475 336,-336 787,-504 1238,-504l0 0zm-9378 2046l7374 0c53,367 200,724 462,1017l-1626 0 -10 0 -1951 0 -11 0 -3188 0c-577,0 -1039,-451 -1050,-1017l0 0zm10322 504c-42,0 -74,20 -105,41 -462,472 -1217,472 -1689,0 -52,-52 -147,-52 -199,0 -53,53 -53,147 0,200 577,577 1510,577 2087,0 95,-85 32,-241 -94,-241l0 0zm-5958 796l1720 0 168 735 -2056 0 168 -735 0 0zm-818 1008l3346 0c63,0 115,41 115,105l0 451c0,62 -52,104 -115,104l-3346 0c-52,0 -105,-41 -105,-104l0 -451c0,-64 52,-105 105,-105l0 0z"/>
   </g>
   <path fill="#373435" fill-opacity="0.031373" d="M2082 17547c68,104 112,203 155,312 32,64 49,183 199,183 44,0 107,-14 163,-45 63,-33 111,-83 136,-159l60 -202 146 -72 10 10c-20,77 -25,149 -25,206 0,170 146,234 262,234 68,0 129,-34 129,-95 0,-81 -34,-217 -78,-339 68,-68 136,-136 214,-191l12 6c34,144 53,287 53,381 0,93 -41,196 -75,264 -70,132 -194,238 -344,238 -114,0 -241,-58 -328,-163l-5 0c-82,101 -209,193 -412,193l-63 0c-10,134 -39,229 -83,314 -121,237 -480,404 -818,404 -470,0 -706,-272 -706,-633 0,-223 73,-431 185,-578l92 38c-70,134 -117,262 -117,385 0,338 275,499 592,499 294,0 658,-187 724,-404 -25,-237 -114,-348 -250,-565 41,-72 94,-144 160,-221l12 0zm5421 -1274c99,62 196,136 291,221 -53,74 -119,142 -201,202 -95,-77 -190,-143 -287,-213 66,-74 131,-146 197,-210zm51 926c-160,0 -291,105 -291,183 0,168 320,219 703,217 -48,-196 -216,-400 -412,-400zm-359 895c208,0 390,-6 529,-41 155,-39 286,-118 286,-171 0,-15 0,-31 -5,-46 -87,8 -187,8 -274,8 -282,0 -498,-64 -583,-222 -21,-44 -36,-93 -36,-149 0,-152 66,-303 182,-406 97,-85 204,-138 313,-138 197,0 354,158 464,408 60,136 101,293 101,491 0,132 -36,243 -118,326 -153,148 -435,204 -867,204l-196 0 0 0 -51 0c-107,0 -184,-19 -245,-66l-10 0c3,25 5,50 5,72 0,97 -32,221 -97,320 -192,287 -400,410 -580,410 -182,0 -405,-70 -606,-161l36 -70c65,27 155,46 279,46 325,0 752,-314 805,-619 -12,-25 -34,-58 -65,-93 -95,-113 -155,-208 -211,-307 48,-95 92,-171 133,-239l17 -2c139,282 265,445 546,445l44 0 0 0 204 0zm-1408 299c24,-130 26,-276 26,-413l0 -202c0,-377 -48,-926 -87,-1282 68,-75 163,-161 238,-219l22 6c51,450 63,972 63,1452 0,126 -5,250 -17,340 -7,114 -73,201 -214,332l-31 -14zm-1449 -596c7,177 94,318 398,318 189,0 349,-50 526,-135 32,-14 49,-33 49,-49 0,-111 -85,-258 -228,-392 -139,-126 -323,-237 -495,-311 -59,-25 -78,-52 -78,-77 0,-51 68,-158 124,-235l19 -2c197,103 417,256 580,427 148,157 240,316 240,489 0,128 -39,250 -102,361 -216,109 -446,192 -674,192 -277,0 -466,-130 -466,-436 0,-33 0,-84 12,-150l95 0zm-501 -503l172 278c63,103 122,215 122,392l0 227c0,183 -117,379 -306,573 -148,132 -279,188 -400,188 -180,0 -386,-56 -624,-159l27 -70c75,21 162,37 269,37 342,-2 692,-252 852,-557 19,-35 26,-68 26,-90 0,-36 -19,-75 -34,-110 -87,-165 -184,-315 -291,-453 56,-89 112,-174 173,-258l14 2z"/>
  </g>
 </g>
</svg>
